<?xml version="1.0" encoding="UTF-8"?>
<!DOCTYPE svg PUBLIC "-//W3C//DTD SVG 1.1//EN" "http://www.w3.org/Graphics/SVG/1.1/DTD/svg11.dtd">
<svg xmlns="http://www.w3.org/2000/svg" version="1.1" width="4425px" height="4431px" style="shape-rendering:geometricPrecision; text-rendering:geometricPrecision; image-rendering:optimizeQuality; fill-rule:evenodd; clip-rule:evenodd" xmlns:xlink="http://www.w3.org/1999/xlink">
<g><path style="opacity:0.999" fill="#dc6f30" d="M 1969.5,-0.5 C 2067.5,-0.5 2165.5,-0.5 2263.5,-0.5C 2245.08,12.7918 2234.25,30.7918 2231,53.5C 2230.33,255.167 2230.33,456.833 2231,658.5C 2236.95,693.453 2257.12,715.287 2291.5,724C 2734.5,724.333 3177.5,724.667 3620.5,725C 3657.24,731.404 3679.07,752.904 3686,789.5C 3686.5,1255.5 3686.67,1721.5 3686.5,2187.5C 3680.15,1842.54 3569.65,1536.2 3355,1268.5C 3154.27,1025.46 2901.44,861.296 2596.5,776C 2359.98,713.759 2122.31,709.092 1883.5,762C 1578.87,834.49 1322.03,985.99 1113,1216.5C 882.95,1477.8 758.284,1783.47 739,2133.5C 726.74,2482.65 823.074,2797.65 1028,3078.5C 1083.83,3152.85 1145.99,3221.85 1214.5,3285.5C 1184.14,3266.35 1154.14,3266.85 1124.5,3287C 981.333,3430.17 838.167,3573.33 695,3716.5C 678.232,3739.95 674.899,3765.28 685,3792.5C 688.271,3798.72 691.771,3804.72 695.5,3810.5C 482.435,3609.89 315.268,3376.23 194,3109.5C 73.1399,2839.7 8.30654,2557.04 -0.5,2261.5C -0.5,2220.17 -0.5,2178.83 -0.5,2137.5C 14.3616,1697.43 146.195,1296.76 395,935.5C 624.869,608.947 920.369,360.78 1281.5,191C 1500.49,90.0842 1729.83,26.2509 1969.5,-0.5 Z"/></g>
<g><path style="opacity:1" fill="#983c34" d="M 2263.5,-0.5 C 2973.17,-0.5 3682.83,-0.5 4392.5,-0.5C 4410.57,12.6365 4421.24,30.3032 4424.5,52.5C 4424.5,783.167 4424.5,1513.83 4424.5,2244.5C 4423.57,2245.57 4423.23,2246.9 4423.5,2248.5C 4422.22,2267 4421.22,2285.66 4420.5,2304.5C 4394.5,2744.05 4253.67,3141.72 3998,3497.5C 3741.09,3847.39 3410.93,4102.73 3007.5,4263.5C 2928.67,4293.33 2848.67,4319.33 2767.5,4341.5C 2766.43,4342.43 2765.1,4342.77 2763.5,4342.5C 2752.5,4344.25 2741.83,4346.92 2731.5,4350.5C 2730.08,4351.45 2728.41,4351.78 2726.5,4351.5C 2714.85,4353.29 2703.51,4355.96 2692.5,4359.5C 2689.17,4359.22 2686.17,4359.88 2683.5,4361.5C 2683.17,4361.5 2682.83,4361.5 2682.5,4361.5C 2678.13,4361.5 2674.13,4362.5 2670.5,4364.5C 2669.83,4364.5 2669.17,4364.5 2668.5,4364.5C 2665.77,4364.17 2663.44,4364.84 2661.5,4366.5C 2660.83,4366.5 2660.17,4366.5 2659.5,4366.5C 2648.9,4367.75 2638.57,4369.75 2628.5,4372.5C 2627.08,4373.45 2625.41,4373.78 2623.5,4373.5C 2619.58,4373.43 2615.91,4374.1 2612.5,4375.5C 2607.41,4377.13 2602.08,4378.13 2596.5,4378.5C 2592.24,4378.34 2588.24,4379.01 2584.5,4380.5C 2224.34,4440.75 1870.34,4414.92 1522.5,4303C 1249.23,4212.93 1003.89,4075.77 786.5,3891.5C 785.415,3889.41 783.749,3888.08 781.5,3887.5C 764.042,3873.76 747.376,3859.1 731.5,3843.5C 730.089,3841.09 728.089,3839.42 725.5,3838.5C 723.5,3837.17 721.833,3835.5 720.5,3833.5C 718.761,3830.76 716.427,3828.76 713.5,3827.5C 706.869,3822.54 700.869,3816.87 695.5,3810.5C 691.771,3804.72 688.271,3798.72 685,3792.5C 674.899,3765.28 678.232,3739.95 695,3716.5C 838.167,3573.33 981.333,3430.17 1124.5,3287C 1154.14,3266.85 1184.14,3266.35 1214.5,3285.5C 1483.07,3528.01 1799.4,3657.18 2163.5,3673C 2536,3680.18 2865,3565.85 3150.5,3330C 3395.06,3121.84 3558.56,2861.67 3641,2549.5C 3670.77,2430.68 3685.94,2310.01 3686.5,2187.5C 3686.67,1721.5 3686.5,1255.5 3686,789.5C 3679.07,752.904 3657.24,731.404 3620.5,725C 3177.5,724.667 2734.5,724.333 2291.5,724C 2257.12,715.287 2236.95,693.453 2231,658.5C 2230.33,456.833 2230.33,255.167 2231,53.5C 2234.25,30.7918 2245.08,12.7918 2263.5,-0.5 Z"/></g>
<g><path style="opacity:0.996" fill="#1b9b65" d="M 3011.5,1365.5 C 3018.04,1364.85 3024.04,1366.35 3029.5,1370C 3119.75,1422.04 3209.92,1474.21 3300,1526.5C 3300.69,1527.33 3300.52,1528 3299.5,1528.5C 2937.66,1738.92 2575.66,1949.09 2213.5,2159C 2211.3,2159.37 2209.14,2159.87 2207,2160.5C 2204.86,2159.87 2202.7,2159.37 2200.5,2159C 1849.57,1957.07 1498.91,1754.73 1148.5,1552C 1141.5,1545.43 1139.67,1537.6 1143,1528.5C 1145.5,1524.67 1148.67,1521.5 1152.5,1519C 1234.93,1470.9 1317.6,1423.23 1400.5,1376C 1404.17,1375.33 1407.83,1375.33 1411.5,1376C 1674.17,1527.33 1936.83,1678.67 2199.5,1830C 2204.23,1831.66 2208.9,1831.33 2213.5,1829C 2479.43,1674.21 2745.43,1519.71 3011.5,1365.5 Z"/></g>
<g><path style="opacity:0.996" fill="#283a7e" d="M 2980.5,1819.5 C 3116.45,1814.53 3211.29,1874.19 3265,1998.5C 3289.89,2063.48 3301.72,2130.82 3300.5,2200.5C 3299.37,2292.32 3284.87,2381.99 3257,2469.5C 3198.48,2651.32 3105.14,2811.99 2977,2951.5C 2949.71,2980.13 2921.21,3007.29 2891.5,3033C 2881.13,3038.7 2871.97,3037.2 2864,3028.5C 2862.44,3026.04 2861.44,3023.38 2861,3020.5C 2860.33,2927.17 2860.33,2833.83 2861,2740.5C 2862.94,2736.89 2865.28,2733.56 2868,2730.5C 2944.07,2649.39 2995.4,2554.39 3022,2445.5C 3031.58,2403.96 3034.58,2361.96 3031,2319.5C 3027.67,2277.49 3013.01,2240.16 2987,2207.5C 2955.55,2175.01 2917.05,2160.17 2871.5,2163C 2865.33,2160.83 2861.17,2156.67 2859,2150.5C 2857.91,2052.5 2857.57,1954.5 2858,1856.5C 2859,1852.84 2860.84,1849.67 2863.5,1847C 2868.55,1844.09 2873.88,1841.76 2879.5,1840C 2912.56,1829.49 2946.23,1822.65 2980.5,1819.5 Z"/></g>
<g><path style="opacity:0.996" fill="#d9a334" d="M 1406.5,1825.5 C 1457.32,1824.7 1506.65,1832.86 1554.5,1850C 1560.09,1852.59 1563.92,1856.75 1566,1862.5C 1566.95,1961.18 1566.62,2059.84 1565,2158.5C 1562.41,2164.09 1558.25,2167.92 1552.5,2170C 1474.64,2169.2 1424.47,2206.04 1402,2280.5C 1391.24,2321.62 1388.57,2363.29 1394,2405.5C 1403.74,2477.06 1426.07,2544.39 1461,2607.5C 1487.82,2656.99 1520.82,2701.99 1560,2742.5C 1561.91,2745.22 1563.24,2748.22 1564,2751.5C 1563.98,2844.5 1563.65,2937.5 1563,3030.5C 1560.28,3039.72 1554.11,3044.72 1544.5,3045.5C 1540.63,3044.97 1536.96,3043.8 1533.5,3042C 1428.03,2949.91 1341.2,2843.08 1273,2721.5C 1207.72,2607.35 1162.39,2485.68 1137,2356.5C 1122.19,2277.23 1119.52,2197.56 1129,2117.5C 1137.41,2050.25 1160.74,1988.92 1199,1933.5C 1251.36,1865.73 1320.53,1829.73 1406.5,1825.5 Z"/></g>
<g><path style="opacity:0.996" fill="#283a7e" d="M 2646.5,1969.5 C 2658.37,1967.18 2666.54,1971.51 2671,1982.5C 2671.93,2042.33 2672.43,2102.16 2672.5,2162C 2672.66,2198.23 2672.16,2234.39 2671,2270.5C 2668.5,2274.33 2665.33,2277.5 2661.5,2280C 2614,2307.59 2566.33,2334.92 2518.5,2362C 2512.67,2365.16 2509.17,2369.99 2508,2376.5C 2508.15,2556.17 2508.81,2735.83 2510,2915.5C 2513.94,2925.22 2521.11,2929.39 2531.5,2928C 2570.46,2906.52 2609.13,2884.52 2647.5,2862C 2660.88,2857.94 2669.71,2862.44 2674,2875.5C 2674.22,2962.34 2674.72,3049.17 2675.5,3136C 2675.6,3144.23 2675.1,3152.39 2674,3160.5C 2671.89,3164.95 2668.72,3168.45 2664.5,3171C 2528.96,3249.27 2393.3,3327.27 2257.5,3405C 2245.63,3406.65 2237.79,3401.82 2234,3390.5C 2232.41,2998.83 2231.41,2607.17 2231,2215.5C 2232.4,2211.21 2234.9,2207.71 2238.5,2205C 2374.73,2126.73 2510.73,2048.23 2646.5,1969.5 Z"/></g>
<g><path style="opacity:0.996" fill="#d9a334" d="M 1768.5,1982.5 C 1773.05,1982.27 1777.38,1983.1 1781.5,1985C 1857.52,2050.07 1923.69,2123.57 1980,2205.5C 2056.61,2316.07 2114.61,2436.07 2154,2565.5C 2179.03,2648.49 2192.19,2733.33 2193.5,2820C 2194.38,2886.51 2183.55,2951.01 2161,3013.5C 2108.4,3144.68 2011.24,3207.18 1869.5,3201C 1832.84,3197.92 1797.18,3190.25 1762.5,3178C 1755.9,3175.74 1751.74,3171.24 1750,3164.5C 1749.33,3105.83 1749.33,3047.17 1750,2988.5C 1750.02,2948.11 1750.68,2907.77 1752,2867.5C 1758.05,2858.05 1766.55,2854.72 1777.5,2857.5C 1837.59,2855.23 1880.09,2826.89 1905,2772.5C 1919.02,2738.58 1925.52,2703.25 1924.5,2666.5C 1923.73,2612.16 1913.9,2559.49 1895,2508.5C 1863.72,2423.55 1817.06,2348.55 1755,2283.5C 1754.14,2281.91 1753.47,2280.25 1753,2278.5C 1752.33,2185.17 1752.33,2091.83 1753,1998.5C 1755.02,1989.99 1760.18,1984.65 1768.5,1982.5 Z"/></g>
<g><path style="opacity:1" fill="#c45d32" d="M 4423.5,2248.5 C 4423.66,2267.35 4422.99,2286.02 4421.5,2304.5C 4421.17,2304.5 4420.83,2304.5 4420.5,2304.5C 4421.22,2285.66 4422.22,2267 4423.5,2248.5 Z"/></g>
<g><path style="opacity:0.857" fill="#da6e30" d="M 4420.5,2304.5 C 4420.83,2304.5 4421.17,2304.5 4421.5,2304.5C 4399.16,2740.06 4262.33,3134.72 4011,3488.5C 3766.01,3826.42 3451.51,4077.25 3067.5,4241C 3048.33,4249 3028.99,4256.5 3009.5,4263.5C 3008.83,4263.5 3008.17,4263.5 3007.5,4263.5C 3410.93,4102.73 3741.09,3847.39 3998,3497.5C 4253.67,3141.72 4394.5,2744.05 4420.5,2304.5 Z"/></g>
<g><path style="opacity:0.987" fill="#d9a334" d="M 1628.5,2766.5 C 1633.48,2766.41 1638.15,2767.58 1642.5,2770C 1665.34,2783.59 1688.34,2796.92 1711.5,2810C 1715.99,2813.98 1718.32,2818.98 1718.5,2825C 1702.47,2928 1685.64,3030.84 1668,3133.5C 1662.26,3141.78 1654.42,3144.61 1644.5,3142C 1633.57,3136.62 1623.4,3130.12 1614,3122.5C 1613.14,3120.91 1612.47,3119.25 1612,3117.5C 1611.17,3004.83 1611.5,2892.16 1613,2779.5C 1615.81,2772.2 1620.98,2767.87 1628.5,2766.5 Z"/></g>
<g><path style="opacity:0.996" fill="#af4d33" d="M 713.5,3827.5 C 716.427,3828.76 718.761,3830.76 720.5,3833.5C 717.573,3832.24 715.239,3830.24 713.5,3827.5 Z"/></g>
<g><path style="opacity:0.996" fill="#b14f33" d="M 725.5,3838.5 C 728.089,3839.42 730.089,3841.09 731.5,3843.5C 728.911,3842.58 726.911,3840.91 725.5,3838.5 Z"/></g>
<g><path style="opacity:0.996" fill="#b04e33" d="M 781.5,3887.5 C 783.749,3888.08 785.415,3889.41 786.5,3891.5C 784.251,3890.92 782.585,3889.59 781.5,3887.5 Z"/></g>
<g><path style="opacity:0.408" fill="#d46930" d="M 3007.5,4263.5 C 3008.17,4263.5 3008.83,4263.5 3009.5,4263.5C 2930.68,4294.88 2850.01,4320.88 2767.5,4341.5C 2848.67,4319.33 2928.67,4293.33 3007.5,4263.5 Z"/></g>
<g><path style="opacity:0.251" fill="#d36930" d="M 2763.5,4342.5 C 2753.09,4345.77 2742.43,4348.43 2731.5,4350.5C 2741.83,4346.92 2752.5,4344.25 2763.5,4342.5 Z"/></g>
<g><path style="opacity:0.251" fill="#cf6531" d="M 2726.5,4351.5 C 2715.43,4354.79 2704.09,4357.45 2692.5,4359.5C 2703.51,4355.96 2714.85,4353.29 2726.5,4351.5 Z"/></g>
<g><path style="opacity:0.282" fill="#d26731" d="M 2692.5,4359.5 C 2689.73,4360.66 2686.73,4361.32 2683.5,4361.5C 2686.17,4359.88 2689.17,4359.22 2692.5,4359.5 Z"/></g>
<g><path style="opacity:0.62" fill="#ca6231" d="M 2682.5,4361.5 C 2678.74,4362.99 2674.74,4363.99 2670.5,4364.5C 2674.13,4362.5 2678.13,4361.5 2682.5,4361.5 Z"/></g>
<g><path style="opacity:0.475" fill="#ce6531" d="M 2668.5,4364.5 C 2666.4,4365.61 2664.07,4366.28 2661.5,4366.5C 2663.44,4364.84 2665.77,4364.17 2668.5,4364.5 Z"/></g>
<g><path style="opacity:0.596" fill="#c65f32" d="M 2659.5,4366.5 C 2649.43,4369.25 2639.1,4371.25 2628.5,4372.5C 2638.57,4369.75 2648.9,4367.75 2659.5,4366.5 Z"/></g>
<g><path style="opacity:0.675" fill="#c55e32" d="M 2623.5,4373.5 C 2620.09,4374.9 2616.42,4375.57 2612.5,4375.5C 2615.91,4374.1 2619.58,4373.43 2623.5,4373.5 Z"/></g>
<g><path style="opacity:0.545" fill="#c45d32" d="M 2596.5,4378.5 C 2592.73,4379.79 2588.73,4380.46 2584.5,4380.5C 2588.24,4379.01 2592.24,4378.34 2596.5,4378.5 Z"/></g>
</svg>
