<svg xmlns="http://www.w3.org/2000/svg" width="11496" height="4425" style="shape-rendering:geometricPrecision;text-rendering:geometricPrecision;image-rendering:optimizeQuality;fill-rule:evenodd;clip-rule:evenodd"><path style="opacity:1" fill="#dc7030" d="M2151.5-.5h121c5.81.99 11.81 1.323 18 1-34.61 9.31-54.61 31.81-60 67.5v600c5.58 39.55 28.08 62.716 67.5 69.5h1326c34.7 8.029 55.53 29.529 62.5 64.5v1387.5c-9.27-351.77-125.77-662.1-349.5-931-199.52-232.43-447.68-389.598-744.5-471.5-274.95-71.09-548.28-65.423-820 17-295.31 95.124-538.14 264.29-728.5 507.5-194.369 255.68-296.369 545.01-306 868-4.147 370.35 110.853 697.35 345 981 40.2 47.37 83.03 92.37 128.5 135-31.19-17.32-60.85-15.49-89 5.5-142.167 142.17-284.333 284.33-426.5 426.5-22.746 30.85-23.246 62.19-1.5 94-272.539-257.67-468.206-565.5-587-923.5-66.101-204.78-102.101-414.61-108-629.5v-114c15.136-461.94 157.636-878.94 427.5-1251 257.047-346.016 586.21-598.182 987.5-756.5 237.37-90.906 483.03-140.073 737-147.5z"/><path style="opacity:1" fill="#973c35" d="M2293.5-.5h2068c34.89 8.056 55.72 29.723 62.5 65 .83 737.672.66 1475.34-.5 2213-.69 5.07-1.35 10.23-2 15.5.38.95.72 1.78 1 2.5v7c-.7 3.73-1.36 7.56-2 11.5.62 1.79.96 3.62 1 5.5v1c-.7 3.73-1.36 7.56-2 11.5.95 1.98 1.29 4.15 1 6.5v1c-.71 2.73-1.37 5.56-2 8.5-21 330.39-115.17 646.22-282.5 947.5-219.78 383.78-525.28 678.61-916.5 884.5a2378.808 2378.808 0 0 1-292 125.5c-2.4-.24-4.4.43-6 2-8.63 3.8-17.63 6.8-27 9a134.86 134.86 0 0 0-22 7c-.71.9-1.71 1.24-3 1-4.66.56-9 1.89-13 4-.71.9-1.71 1.24-3 1-2.65-.09-4.99.58-7 2-3.66.22-7 1.22-10 3-140.1 41.58-283.1 68.75-429 81.5-49.76 4.08-99.42 6.92-149 8.5h-93c-456.36-12.73-870.02-150.23-1241-412.5-80.939-58.08-157.605-121.58-230-190.5-21.746-31.81-21.246-63.15 1.5-94 142.167-142.17 284.333-284.33 426.5-426.5 28.15-20.99 57.81-22.82 89-5.5 220.23 200.76 478.56 325.26 775 373.5 338.2 49.29 655.53-10.05 952-178 275.19-162.18 480.02-388.01 614.5-677.5 89.54-198.2 134.04-406.2 133.5-624V802c-6.97-34.971-27.8-56.471-62.5-64.5H2298c-39.42-6.784-61.92-29.95-67.5-69.5V68c5.39-35.69 25.39-58.19 60-67.5 1.29.237 2.29-.096 3-1z"/><path style="opacity:1" fill="#404662" d="M6952.5 1105.5c189.71-7.62 326.88 72.72 411.5 241 37.44 82.95 53.44 169.95 48 261-3.28 69.69-18.61 137.02-46 202-19.13 43.48-45.97 81.31-80.5 113.5 38.96 33.29 77.63 66.96 116 101l-76 85c-1 .67-2 .67-3 0-43.19-38.02-86.52-75.85-130-113.5-56.53 31.9-117.03 49.9-181.5 54-203.34 7.41-345.34-82.59-426-270-28.14-75.48-39.8-153.48-35-234 5.54-134.46 56.37-247.96 152.5-340.5 71.57-62.04 154.91-95.21 250-99.5zm20 129c39.21-.9 77.21 5.6 114 19.5 37.27 15.93 68.1 40.1 92.5 72.5 45.13 64.37 69.79 136.04 74 215 4.96 65.71-3.04 130.04-24 193-12.27 34.22-29.94 65.22-53 93a22338.49 22338.49 0 0 1-107.5-94.5c-1-.67-2-.67-3 0a9157.958 9157.958 0 0 1-75 86.5c29.97 26.3 59.97 52.64 90 79-24.27 11.82-49.93 18.66-77 20.5-122.67 8.11-208.84-43.72-258.5-155.5-25.37-59.34-37.87-121.34-37.5-186-.91-74.98 15.93-145.65 50.5-212 46.61-85.23 118.11-128.9 214.5-131z"/><path style="opacity:.592" fill="#464f5f" d="M4980.5 1150.5c-.99-7.48-1.33-15.15-1-23h-157c.33 10.18-.01 20.18-1 30v-31h159v24z"/><path style="opacity:.592" fill="#3f4e60" d="M9676.5 1127.5c-130.88-.66-261.54 0-392 2v-3c130.83-.33 261.5 0 392 1z"/><path style="opacity:1" fill="#404662" d="M4980.5 1150.5v288c-.69 5.73-1.35 11.57-2 17.5.65 8.93 1.32 17.77 2 26.5v162c-.75 1.03-1.42 2.2-2 3.5.65 8.93 1.32 17.77 2 26.5v112c-.69 4.4-1.36 8.9-2 13.5a201 201 0 0 1 0 40c.65 8.93 1.32 17.77 2 26.5v4c-.69 5.73-1.35 11.57-2 17.5.84 1.01 1.17 2.18 1 3.5h458c1.33 45.4 1.33 90.9 0 136.5-205 .67-410 .67-615 0-.99-9.42-1.32-18.92-1-28.5.67-18.07 1.34-36.24 2-54.5-.64-4.27-1.31-8.43-2-12.5v-239c.69-4.73 1.36-9.57 2-14.5-.75-13.19-.75-26.53 0-40-.65-6.6-1.32-13.1-2-19.5v-462c.99-9.82 1.33-19.82 1-30h157c-.33 7.85.01 15.52 1 23zM9676.5 1127.5c167.66 2.69 282.16 81.69 343.5 237 25 68.76 36.8 139.76 35.5 213 .8 61.16-7.4 121.49-24.5 181-20.3 66.28-54.12 124.28-101.5 174-49.95 46.64-108.95 75.81-177 87.5a856.972 856.972 0 0 1-69.5 8.5c-132.54-.03-265.37-.03-398.5 0-.27-300.24-.27-599.91 0-899 130.46-2 261.12-2.66 392-2zm-193 129h121c6.02.7 11.35.7 16 0 37.3 1.16 73.97 6.99 110 17.5 39.99 12.06 73.82 33.56 101.5 64.5 38.79 52.37 59.29 111.2 61.5 176.5 5.58 53.9 4.42 107.73-3.5 161.5-7.62 52.22-27.28 99.22-59 141-29.13 32.34-64.96 54.17-107.5 65.5-33.73 9.1-68.06 14.1-103 15-59.33.5-118.67.67-178 .5v-642h41z"/><path style="opacity:.592" fill="#755852" d="M9490.5 1256.5h-7c2.54-1.93 4.87-1.93 7 0z"/><path style="opacity:.592" fill="#745852" d="M9561.5 1256.5h-7c2.54-1.93 4.87-1.93 7 0z"/><path style="opacity:.592" fill="#6b5856" d="M9620.5 1256.5c-4.65.7-9.98.7-16 0 5.49-1.89 10.82-1.89 16 0z"/><path style="opacity:1" fill="#404662" d="M6095.5 1739.5c-2.13-1.93-4.46-1.93-7 0h-15c-2.13-1.93-4.46-1.93-7 0h-31c-1.03-.75-2.2-1.42-3.5-2-1.3.58-2.47 1.25-3.5 2h-55c-2.54-1.93-4.87-1.93-7 0h-193c-2.13-1.93-4.46-1.93-7 0h-9c-2.13-1.93-4.46-1.93-7 0h-112c-.74 47.72 12.42 91.05 39.5 130 24.18 32.35 56.34 51.85 96.5 58.5 39.69 6.74 78.35 3.07 116-11 29.23-13.56 51.73-34.4 67.5-62.5 4.98-10.46 9.81-20.96 14.5-31.5 45.33-.5 90.67-.67 136-.5-13.06 66.32-46.06 120.16-99 161.5-68.13 47.85-142.8 68.02-224 60.5-141.24-9.54-233.08-81.88-275.5-217-20.95-77.77-21.61-156.1-2-235 23.56-82.16 70.73-146.66 141.5-193.5 55.72-31.88 115.72-45.55 180-41 97.69 5.58 174.19 48.41 229.5 128.5 51.79 76.83 71.29 161.16 58.5 253h-22zm-123-103v7h-334c2.13-58.44 26.13-105.6 72-141.5 38.14-25.69 79.64-34.86 124.5-27.5 33.89 4.28 62.55 18.94 86 44 29.83 33.63 47 72.96 51.5 118zM10451.5 1357.5c56.2-3.09 110.5 5.41 163 25.5 61 26.33 108.2 68.16 141.5 125.5 29.6 53.38 45.3 110.38 47 171 3.8 64.69-6.9 127.02-32 187-51.7 107.14-136.8 166.14-255.5 177-58.9 7.03-117.6.2-176-20.5-73.7-30.34-127.5-81.5-161.5-153.5-18.8-42.94-29.9-87.78-33.5-134.5-1.9-40.02.6-79.85 7.5-119.5 17.7-91.01 64.9-161.84 141.5-212.5 49-28.05 101.7-43.22 158-45.5zm18 114c34.8-.72 67.1 7.45 97 24.5 22.3 14.64 40.1 33.47 53.5 56.5 23.3 40.03 36.1 83.03 38.5 129 3.8 58.09-8 112.75-35.5 164-32.7 57.53-82.4 86.19-149 86-67.3.05-117.3-28.95-150-87-31.7-60.99-41.9-125.15-30.5-192.5 6.4-50.64 26.4-95.14 60-133.5 25.7-25.61 56.6-40.28 92.5-44a677.7 677.7 0 0 1 23.5-3zM11495.5 1556.5v472c-48.2.33-96.4 0-144.5-1-.2-140.9-.7-281.74-1.5-422.5-3-99.67-54-143.34-153-131-41.7 7.1-74.6 27.93-98.5 62.5-15.8 23.22-25.5 48.55-29 76-1 9.97-1.7 19.97-2 30-.5 128.67-.7 257.33-.5 386h-144v-653h137v45c-2.2 11.9-2.2 23.9 0 36-.2 5.01 0 10.01.5 15 .4.46.9.79 1.5 1 56-84.78 135-122.62 237-113.5 47.7 3.19 90.3 19.19 128 48 32.7 28.27 53.6 63.77 62.5 106.5 3.1 14.35 5.2 28.68 6.5 43zM7791.5 2045.5c-4.33-1.33-8.67-1.33-13 0-27.99.65-56.32-2.19-85-8.5-77-17.33-125.5-64.17-145.5-140.5-9.97-38.54-14.47-77.7-13.5-117.5.41-134.43.74-268.93 1-403.5h145c-.17 142 0 284 .5 426 .84 29.16 8.17 56.49 22 82 19.15 27.67 45.65 43.17 79.5 46.5 34.41 3.77 67.74-.56 100-13 37.96-18.04 62.13-47.54 72.5-88.5 5.87-22.62 8.87-45.62 9-69 .5-128 .67-256 .5-384h144v653h-142c.33-30.34 0-60.67-1-91-34.68 55.11-84.01 89.95-148 104.5-8.61 1.63-17.28 2.79-26 3.5zM8357.5 2286.5c-7-1.33-14-1.33-21 0-29.19-.76-58.19-3.09-87-7-.17-41 0-82 .5-123 27.49 6.02 55.33 8.86 83.5 8.5 23.14-1.35 41.97-10.85 56.5-28.5 6.13-8.82 11.47-18.15 16-28 9.91-27.72 19.41-55.56 28.5-83.5-82.62-216.03-164.96-432.2-247-648.5 53-1 106-1.33 159-1a69710.467 69710.467 0 0 0 170 486c1.3-.59 2.13-1.59 2.5-3 54.4-160.7 108.9-321.37 163.5-482 50.33-1.33 100.67-1.33 151 0-83.73 227.68-167.56 455.35-251.5 683a1415.13 1415.13 0 0 1-58 130c-30.2 53.82-76.04 85.32-137.5 94.5-9.64 1.22-19.3 2.05-29 2.5z"/><path style="opacity:1" fill="#1b9a65" d="M3014.5 1377.5c8.32 1.49 15.99 4.66 23 9.5 87.67 50.83 175.33 101.67 263 152.5-362.01 211-724.34 421.5-1087 631.5-4.65 1.91-9.32 1.91-14 0-349.33-201.67-698.67-403.33-1048-605-9.8-6.73-12.3-15.57-7.5-26.5 1.5-2.83 3.67-5 6.5-6.5 83.54-48.6 167.2-96.93 251-145 2.67-.67 5.33-.67 8 0 6.95 2.81 13.61 6.14 20 10 256.17 148.25 512.5 296.25 769 444 6.31 2.29 12.31 1.63 18-2l789-459c2.96-1.6 5.96-2.77 9-3.5z"/><path style="opacity:.592" fill="#5b545a" d="M11059.5 1420.5v36c-2.2-12.1-2.2-24.1 0-36z"/><path style="opacity:.592" fill="#5c545a" d="M4980.5 1438.5v44c-.68-8.73-1.35-17.57-2-26.5.65-5.93 1.31-11.77 2-17.5z"/><path style="opacity:.592" fill="#59535a" d="M4821.5 1619.5c.68 6.4 1.35 12.9 2 19.5-.75 13.47-.75 26.81 0 40-.64 4.93-1.31 9.77-2 14.5v-74z"/><path style="opacity:.592" fill="#3f4e60" d="M5972.5 1636.5c.97 2.45 1.31 5.11 1 8-112.4.33-224.07 0-335-1h334v-7z"/><path style="opacity:.592" fill="#5f565a" d="M4980.5 1644.5v30c-.68-8.73-1.35-17.57-2-26.5.58-1.3 1.25-2.47 2-3.5z"/><path style="opacity:.592" fill="#755852" d="M5757.5 1739.5h-7c2.54-1.93 4.87-1.93 7 0zM5773.5 1739.5h-7c2.54-1.93 4.87-1.93 7 0z"/><path style="opacity:.592" fill="#7c5b50" d="M5973.5 1739.5h-7c2.13-1.93 4.46-1.93 7 0z"/><path style="opacity:.592" fill="#755852" d="M6035.5 1739.5h-7c1.03-.75 2.2-1.42 3.5-2 1.3.58 2.47 1.25 3.5 2zM6073.5 1739.5h-7c2.54-1.93 4.87-1.93 7 0zM6095.5 1739.5h-7c2.54-1.93 4.87-1.93 7 0z"/><path style="opacity:.592" fill="#55535c" d="M4980.5 1786.5v80c-.68-8.73-1.35-17.57-2-26.5a201 201 0 0 0 0-40c.64-4.6 1.31-9.1 2-13.5z"/><path style="opacity:1" fill="#3d4663" d="M2985.5 1831.5c132.65-2.96 225.48 56.04 278.5 177 22.11 55.52 34.11 113.19 36 173 2.57 86.47-7.43 171.47-30 255-59.61 212.83-166.11 397.66-319.5 554.5a2242.443 2242.443 0 0 1-59 54c-10.42 5.78-19.58 4.28-27.5-4.5a19.27 19.27 0 0 1-3-9c-.67-92.33-.67-184.67 0-277a22.64 22.64 0 0 1 4-8c62.86-65.66 109.53-141.66 140-228 17.74-49.3 26.91-100.13 27.5-152.5 1.44-43.74-8.06-84.9-28.5-123.5-30.78-47.98-74.95-70.48-132.5-67.5-5.41-1.74-9.24-5.24-11.5-10.5-1.76-97.94-2.42-195.94-2-294 .83-5.17 3.33-9.33 7.5-12.5 38.86-14.55 78.86-23.39 120-26.5z"/><path style="opacity:1" fill="#d9a234" d="M1395.5 1838.5c56.61-2.94 111.28 5.9 164 26.5 3.04 2.59 5.21 5.76 6.5 9.5.99 98.7.66 197.37-1 296-5.37 10.6-13.87 14.6-25.5 12-58.83 1.47-101 28.47-126.5 81-15.11 34.9-22.28 71.4-21.5 109.5 1.64 67.41 16.14 131.91 43.5 193.5 30.92 70.87 72.92 134.21 126 190 1.28 2.22 2.28 4.55 3 7 .24 93.33-.09 186.67-1 280-6.87 13.92-17.03 17.09-30.5 9.5-105.32-92.65-192.16-199.82-260.5-321.5-54.71-96.78-95.71-199.12-123-307-21.2-84.11-29.2-169.44-24-256 3.97-66.55 21.3-129.22 52-188 48.23-84.88 121.07-132.22 218.5-142z"/><path style="opacity:.278" fill="#40545f" d="M4980.5 1870.5v20c152.5-.33 304.83 0 457 1h-458c.17-1.32-.16-2.49-1-3.5.65-5.93 1.31-11.77 2-17.5z"/><path style="opacity:1" fill="#3d4663" d="M2648.5 1981.5c10.79-1.19 18.29 3.14 22.5 13 1.08 53.16 1.58 106.33 1.5 159.5.16 42.89-.34 85.72-1.5 128.5-2.17 4.17-5.33 7.33-9.5 9.5-48.67 28-97.33 56-146 84-4.46 3.41-6.96 7.91-7.5 13.5.3 179.32.97 358.66 2 538 4.34 10.92 12.17 15.08 23.5 12.5a9801.34 9801.34 0 0 1 115-66c12.63-3.27 21.13 1.23 25.5 13.5.3 80 .8 160 1.5 240 .13 15.05-.37 30.05-1.5 45-1.74 3.74-4.24 6.91-7.5 9.5-135.33 78-270.67 156-406 234-13.55 3.78-22.38-1.05-26.5-14.5-1.1-362.17-2.27-724.33-3.5-1086.5-.15-29.88.35-59.71 1.5-89.5a28.02 28.02 0 0 1 7.5-8.5c136.43-78.54 272.76-157.04 409-235.5z"/><path style="opacity:.592" fill="#51535d" d="M4821.5 1932.5c.69 4.07 1.36 8.23 2 12.5-.66 18.26-1.33 36.43-2 54.5v-67z"/><path style="opacity:1" fill="#d9a234" d="M1766.5 1995.5c4.77-.31 9.43.19 14 1.5 58.95 49.95 112.11 105.45 159.5 166.5 102.76 132.52 176.76 280.19 222 443 24.22 88.1 34.22 177.77 30 269-2.98 60.58-16.65 118.58-41 174-57.96 117.59-152.79 172.09-284.5 163.5-34.88-3.24-68.88-10.58-102-22-7.97-2.3-12.81-7.47-14.5-15.5-.56-98.39.11-196.72 2-295 2.47-5.49 6.64-8.99 12.5-10.5 75.33.98 124.83-34.19 148.5-105.5 12.15-43.69 15.15-88.03 9-133-9.54-66.61-29.87-129.61-61-189-28.14-53.61-63.14-102.27-105-146l-3-6c-.67-92.67-.67-185.33 0-278 1.4-8.22 5.9-13.89 13.5-17z"/><path style="opacity:.592" fill="#6f5b56" d="M7778.5 2045.5c4.33-1.33 8.67-1.33 13 0-4.72.56-9.06.56-13 0zM8336.5 2286.5c7-1.33 14-1.33 21 0-6.84 1.02-13.84 1.02-21 0z"/><path style="opacity:.294" fill="#d17a32" d="M4423.5 2277.5c.32 6.19-.01 12.19-1 18-.28-.72-.62-1.55-1-2.5.65-5.27 1.31-10.43 2-15.5z"/><path style="opacity:.294" fill="#d37932" d="M4422.5 2302.5c.29 5.76-.05 11.43-1 17-.04-1.88-.38-3.71-1-5.5.64-3.94 1.3-7.77 2-11.5z"/><path style="opacity:.294" fill="#cd7535" d="M4421.5 2320.5c.32 6.19-.01 12.19-1 18 .29-2.35-.05-4.52-1-6.5.64-3.94 1.3-7.77 2-11.5z"/><path style="opacity:1" fill="#da7230" d="M4420.5 2339.5c-25.98 422.15-159.81 805.48-401.5 1150-246.2 343.83-564.03 598.67-953.5 764.5a1806.43 1806.43 0 0 1-138 51.5 2378.808 2378.808 0 0 0 292-125.5c391.22-205.89 696.72-500.72 916.5-884.5 167.33-301.28 261.5-617.11 282.5-947.5.63-2.94 1.29-5.77 2-8.5z"/><path style="opacity:1" fill="#c77c33" d="M6022.5 2545.5c96.03-6.41 175.2 26.59 237.5 99 30.79 40.61 50.46 86.28 59 137 13.99 77.37 5.33 152.04-26 224-45.17 93.88-120.01 145.05-224.5 153.5-67.38 5.66-129.38-9.68-186-46-45.74-33.43-78.24-76.93-97.5-130.5-26.59-77.05-29.59-155.05-9-234 28.07-98.41 90.91-162.91 188.5-193.5 19.25-4.6 38.58-7.76 58-9.5zm0 67c92.53-6.17 159.03 32.16 199.5 115 32.67 83.65 32.67 167.32 0 251-40.65 83.26-107.48 121.43-200.5 114.5-56.38-6.1-101.21-31.93-134.5-77.5-21.5-31.8-35.16-66.8-41-105-9.89-60.55-4.22-119.55 17-177 23.31-54.65 62.81-92.15 118.5-112.5 13.57-3.95 27.24-6.78 41-8.5z"/><path style="opacity:1" fill="#c77d33" d="M6870.5 2559.5h69v587h-70c-.33-195.74 0-391.4 1-587zM7051.5 2559.5h70v86h-70v-86z"/><path style="opacity:1" fill="#c77c34" d="M8586.5 2559.5h79c.17 153.67 0 307.33-.5 461-10.2 81.53-56.03 127.37-137.5 137.5-27.09 2.49-54.09 1.83-81-2-72.02-14.69-113.18-58.52-123.5-131.5-2.3-23.62-2.97-47.28-2-71 26.09-.99 52.26-1.33 78.5-1-1.27 28.04 1.23 55.7 7.5 83 9.65 34.76 32.48 53.92 68.5 57.5 16.42 1.11 32.76.45 49-2 31.6-7.26 50.76-26.76 57.5-58.5 1.87-7.57 3.21-15.24 4-23 .5-150 .67-300 .5-450zM9547.5 2559.5h71v587h-71c.17-19 0-38-.5-57-13.28 26.28-33.78 44.44-61.5 54.5-30.54 10.12-61.88 13.79-94 11-71.42-6.27-122.25-41.77-152.5-106.5-20.58-47.98-27.92-97.98-22-150 4.9-58.3 28.4-107.47 70.5-147.5 40.68-31.01 86.68-44.01 138-39 36.33 3.1 69 15.44 98 37a159.66 159.66 0 0 1 23.5 28.5c.5-72.67.67-145.33.5-218zm-138 214c27.32-1.24 52.99 4.6 77 17.5 19.43 13.1 34.26 30.27 44.5 51.5 18.69 42.66 24.03 86.99 16 133-5.94 36.37-21.77 67.54-47.5 93.5-28.94 20.98-61.27 28.98-97 24-43.63-5.89-74.79-28.72-93.5-68.5-15.76-34.64-21.76-70.98-18-109 2.07-35.87 12.73-68.87 32-99 22-27.95 50.83-42.28 86.5-43zM6595.5 2711.5c28.95-1.97 57.28 1.19 85 9.5 33.94 12.6 56.77 36.1 68.5 70.5a212.578 212.578 0 0 1 11 58c.5 99 .67 198 .5 297h-71c.17-100.33 0-200.67-.5-301-5.14-40.14-27.64-63.64-67.5-70.5-87.71-6.62-135.21 33.88-142.5 121.5-.5 83.33-.67 166.67-.5 250h-71v-425h67c-.17 22.34 0 44.67.5 67 26.72-46.53 66.89-72.2 120.5-77zM7416.5 2711.5c30.04-2.1 59.37 1.4 88 10.5 32.39 12.72 54.22 35.55 65.5 68.5 6.03 17.5 9.7 35.5 11 54 .5 100.67.67 201.33.5 302h-71c.48-103.36-.02-206.69-1.5-310-8.38-35.38-30.55-55.88-66.5-61.5-33.8-4.48-65.13 2.19-94 20-28.82 23.47-44.66 53.97-47.5 91.5-.5 86.67-.67 173.33-.5 260h-71v-425h66c-.33 22.34 0 44.68 1 67 26.66-46.34 66.66-72 120-77z"/><path style="opacity:1" fill="#c77c33" d="M7844.5 2711.5c90.66-5.39 153.83 33.28 189.5 116 16.79 41.05 23.95 83.72 21.5 128h-318c-1.54 44.6 13.8 82.1 46 112.5 25.43 18.36 53.93 26.86 85.5 25.5 27.26 1.64 52.1-5.19 74.5-20.5 19.01-16.05 31.01-36.39 36-61 23.33-.67 46.67-.67 70 0-18.81 87.42-72.81 135.09-162 143-122.95 6.45-196.12-50.72-219.5-171.5-9.45-50.13-5.45-99.13 12-147 30.86-73.38 85.69-115.04 164.5-125zm8 62c64.5.99 106 32.32 124.5 94a132.75 132.75 0 0 1 3.5 25c-81 .17-162 0-243-.5 3.14-39.76 20.14-72.09 51-97 19.34-13.33 40.67-20.5 64-21.5zM9879.5 2711.5c30.5-2.67 59.83 1.83 88 13.5 25.06 12.39 44.2 30.89 57.5 55.5.5-19.66.7-39.33.5-59h67c.2 137.33 0 274.67-.5 412-1 40.81-11.7 78.81-32 114-22.6 32.18-53.1 53.01-91.5 62.5-56.83 13.55-112.83 10.88-168-8-24.93-10.94-45.77-27.11-62.5-48.5-12.21-18.46-18.71-38.8-19.5-61h71c.93 18.35 8.59 33.19 23 44.5 36.17 21.86 75.17 29.2 117 22 39.75-7.95 66.92-30.78 81.5-68.5 8-20.59 12.7-41.93 14-64 .7-17.33.7-34.67 0-52-18.7 38.31-48.82 62.14-90.5 71.5-43.29 9.19-85.29 5.19-126-12-38.78-19.78-66.95-49.62-84.5-89.5-21.45-52.27-27.12-106.27-17-162 7.22-42.04 23.89-79.71 50-113 33.47-34.82 74.3-54.15 122.5-58zm16 62c27.37-1.41 52.37 5.42 75 20.5 21.16 18.45 35.7 41.29 43.5 68.5 11.6 44.08 11.2 88.08-1 132-22.29 74.73-71.79 104.9-148.5 90.5-33.35-11.34-57.18-33.17-71.5-65.5-14.26-39.52-18.93-80.18-14-122 3.2-30.95 13.87-58.95 32-84 22.25-25.7 50.41-39.03 84.5-40zM10355.5 2711.5c95.9-4.82 160.4 37.51 193.5 127 13.7 37.81 19.5 76.81 17.5 117h-318c-1.6 41.49 11.7 77.16 40 107 20.5 18.22 44.5 28.38 72 30.5 13 .67 26 .67 39 0 41.7-3.75 70.2-24.91 85.5-63.5 2.1-5.85 3.6-11.85 4.5-18h70c-17.9 87.74-71.6 135.57-161 143.5-115.6 8.01-187.8-43.82-216.5-155.5-13.2-54.49-10.6-108.16 8-161 21.7-54.35 59.5-92.85 113.5-115.5 17-5.71 34.4-9.54 52-11.5zm7 62c61.6.34 102.7 29.34 123.5 87 2.9 10.49 4.8 21.15 5.5 32h-243c2.7-40.27 19.7-72.77 51-97.5 19-13.17 40-20.33 63-21.5z"/><path style="opacity:1" fill="#c77d33" d="M7051.5 2721.5h70v425h-70v-425z"/><path style="opacity:1" fill="#c77c34" d="M8781.5 2721.5h71c-.17 100 0 200 .5 300 8.05 49.03 37.05 73.03 87 72 59.45.8 98.45-26.86 117-83 3.3-12.46 5.3-25.13 6-38 .5-83.67.67-167.33.5-251h71v425h-67c.17-22.34 0-44.67-.5-67-26.6 45.74-66.44 70.9-119.5 75.5-30.72 2.73-60.72-.6-90-10-34.06-14.07-56.22-38.9-66.5-74.5a228.754 228.754 0 0 1-9-54c-.5-98.33-.67-196.67-.5-295z"/><path style="opacity:1" fill="#d9a234" d="M1625.5 2779.5c4.77-.31 9.43.19 14 1.5 22.67 13 45.33 26 68 39 7 4 10.67 10 11 18-16.11 100.51-32.28 201.01-48.5 301.5-3.8 12.99-12.3 17.82-25.5 14.5a191.988 191.988 0 0 1-29.5-18.5l-3-6c-.69-112-.36-224 1-336 1.93-6.76 6.09-11.42 12.5-14z"/><path style="opacity:.62" fill="#ce7d32" d="M6870.5 2559.5c-1 195.6-1.33 391.26-1 587-.67-97.67-1-195.5-1-293.5 0-98.17.67-196 2-293.5z"/><path style="opacity:1" fill="#c97038" d="M2927.5 4305.5c-1.6 1.57-3.6 2.24-6 2 1.6-1.57 3.6-2.24 6-2z"/><path style="opacity:.294" fill="#d27732" d="M2894.5 4316.5c-6.93 3.24-14.27 5.57-22 7a134.86 134.86 0 0 1 22-7z"/><path style="opacity:.294" fill="#d47831" d="M2869.5 4324.5c-4 2.11-8.34 3.44-13 4 4-2.11 8.34-3.44 13-4z"/><path style="opacity:.62" fill="#d37932" d="M2853.5 4329.5c-2.01 1.42-4.35 2.09-7 2 2.01-1.42 4.35-2.09 7-2z"/><path style="opacity:.294" fill="#d47831" d="M2846.5 4331.5c-3 1.78-6.34 2.78-10 3 3-1.78 6.34-2.78 10-3z"/></svg>