<svg xmlns="http://www.w3.org/2000/svg" viewBox="0 0 2758.91 1061.83"><defs><style>.cls-1{fill:#daa335;}.cls-2{fill:#1b9b66;}.cls-3{fill:#283a7e;}.cls-4{fill:#dd7030;}.cls-5{fill:#983c35;}.cls-6{fill:#454b5a;}.cls-7{fill:#c77d34;}</style></defs><g id="Layer_2" data-name="Layer 2"><g id="Layer_1-2" data-name="Layer 1"><path class="cls-1" d="M420.87,483.42a4.43,4.43,0,0,1,7.29-3.37c56.48,48,98.37,130.71,98.17,200.38-.2,71.39-44.54,105.43-103.24,85.15a4.43,4.43,0,0,1-3-4.21l.19-68.14a4.41,4.41,0,0,1,4.54-4.41c22,1,37.28-15.8,37.36-45.43.09-31.09-16.58-67.35-40.24-91.86a4.46,4.46,0,0,1-1.25-3.09ZM389.11,753.7l5.06,2.92a4.43,4.43,0,0,0,6.58-3.13l11.57-71.7a4.41,4.41,0,0,0-2.15-4.54l-16.41-9.47a4.43,4.43,0,0,0-6.64,3.82l-.22,78.25A4.45,4.45,0,0,0,389.11,753.7Zm-21.2-21.05a4.43,4.43,0,0,0,7.29-3.37l.18-65a4.43,4.43,0,0,0-1.26-3.09c-23.66-24.51-40.32-60.78-40.23-91.85.08-29.64,15.37-46.41,37.36-45.44a4.4,4.4,0,0,0,4.54-4.41l.19-68.14a4.45,4.45,0,0,0-3-4.21c-58.7-20.29-103,13.75-103.25,85.16C269.53,601.93,311.42,684.6,367.91,732.65Z"/><path class="cls-2" d="M792.1,369.55l-65.94-38.07a4.44,4.44,0,0,0-4.43,0L531.53,442a4.41,4.41,0,0,1-4.43,0L339.66,333.8a4.41,4.41,0,0,0-4.43,0L276.33,368a4.42,4.42,0,0,0,0,7.65l251.2,145a4.46,4.46,0,0,0,4.44,0L792.1,369.55"/><path class="cls-3" d="M686,449.75a4.44,4.44,0,0,1,3-4.21c58.6-20.26,102.88,13.73,103.08,85,.2,69.55-41.62,152.07-98,200a4.43,4.43,0,0,1-7.29-3.36l-.18-64.9a4.43,4.43,0,0,1,1.26-3.09c23.61-24.47,40.26-60.68,40.17-91.71C728,538,712.7,521.21,690.76,522.17a4.4,4.4,0,0,1-4.55-4.41Zm-149.73,366a4.43,4.43,0,0,0,6.64,3.82l59.52-34.36,37.33-21.56a4.43,4.43,0,0,0,2.21-3.84l-.19-65.79a4.42,4.42,0,0,0-6.63-3.82l-26.33,15.2a4.42,4.42,0,0,1-6.63-3.82l-.36-127.73a4.41,4.41,0,0,1,2.21-3.84l35.11-20.27a4.42,4.42,0,0,0,2.21-3.85l-.18-65.78a4.43,4.43,0,0,0-6.64-3.82l-67.34,38.88-29.51,17a4.44,4.44,0,0,0-2.21,3.85Z"/><path class="cls-4" d="M530.91,0C237.7,0,0,237.69,0,530.91s237.7,530.92,530.91,530.92,530.92-237.7,530.92-530.92S824.13,0,530.91,0Zm0,884.85C335.44,884.85,177,726.39,177,530.91S335.44,177,530.91,177,884.85,335.43,884.85,530.91,726.4,884.85,530.91,884.85Z"/><path class="cls-5" d="M1044.13,0H553.2a17.7,17.7,0,0,0-17.7,17.7V159.28A17.69,17.69,0,0,0,553.2,177h314a17.71,17.71,0,0,1,17.7,17.7V527.75c0,196.18-160.52,358.58-356.69,357.09A352.54,352.54,0,0,1,292.8,792.76a17.66,17.66,0,0,0-24.35.62L168.25,893.57a17.71,17.71,0,0,0,.41,25.44c2.75,2.57,5.51,5.11,8.31,7.61a528.89,528.89,0,0,0,356.25,135.2c292.93-1.24,528.61-241.76,528.61-534.69V17.7A17.71,17.71,0,0,0,1044.13,0Z"/><path class="cls-6" d="M1157.39,486.68V270.6h37.83V454h109.86v32.68Z"/><path class="cls-6" d="M1468.19,417.38h-115q0,19.68,10.74,33t31.33,13.31q29,0,38.13-26h32.68q-5.44,25.13-25,39.19t-45.84,14.08q-36.32,0-56.45-22.55t-20.12-59.77q0-34.5,20.88-58.56T1394.35,326q36,0,57.2,27.53T1468.19,417.38Zm-115-22.7h80.5q-1.21-17.25-11.8-29.35t-27.54-12.11q-17.55,0-29.06,11.8T1353.19,394.68Z"/><path class="cls-6" d="M1748.43,461.56l27.84,24.21-18.46,20.58-31.47-27.54q-22.41,13-50.85,13-46.9,0-75.2-32.54T1572,378.64q0-47.81,28.3-80.5t75.2-32.68q46.9,0,75.21,32.68t28.3,80.5a144.23,144.23,0,0,1-7.57,46.15Q1763.86,447.35,1748.43,461.56Zm-48.72-5.75-21.79-19.06,18.15-20.88,26.33,23q18.76-23,18.77-60.22,0-34.18-16.65-58.26t-49-24.05q-32.38,0-49,24.05t-16.65,58.26q0,34.2,16.65,58.26t49,24.06A54.66,54.66,0,0,0,1699.71,455.81Z"/><path class="cls-6" d="M1946.05,330.22V486.68h-33.9V464.89h-.6a49.1,49.1,0,0,1-18.92,18.77,50.56,50.56,0,0,1-25.57,7.26q-30.57,0-44.49-15.13t-13.92-46.31V330.22h34.5v95.94q0,20,7.57,28.75t22.39,8.77q38.43,0,38.44-42.67V330.22Z"/><path class="cls-6" d="M2024.43,486.08l-59.32-155.86h37.83L2043.8,447h.6l39.65-116.82h36l-60.83,164.94q-10.59,26.62-16.34,34.8-13.32,18.76-39,18.76a157.11,157.11,0,0,1-23.91-1.81V517.85q13.3,2.11,16.34,2.12,10.89,0,15.89-5.3t8.32-16.49Z"/><path class="cls-6" d="M2228.4,486.68V270.6H2318q47.51,0,71.42,30.11t23.91,77.93q0,47.82-23.91,77.93T2318,486.68Zm37.83-185.21V455.81h37.22q21.5,0,36.17-5.75t22.24-16.79a70.31,70.31,0,0,0,10.59-24.06,136.09,136.09,0,0,0,3-30.57,136.09,136.09,0,0,0-3-30.57A70.35,70.35,0,0,0,2361.86,324q-7.56-11-22.24-16.8t-36.17-5.75Z"/><path class="cls-6" d="M2571.58,468.07q-21.18,22.86-57.8,22.85T2456,468.07q-21.2-22.85-21.19-59.77,0-36.32,21.19-59.32t57.8-23q36.61,0,57.8,23t21.18,59.32Q2592.76,445.23,2571.58,468.07Zm-90.94-20.73q11.34,16.34,33.14,16.34t33.14-16.34q11.34-16.33,11.34-39,0-22.4-11.34-38.74t-33.14-16.34q-21.8,0-33.14,16.34t-11.35,38.74Q2469.29,431,2480.64,447.34Z"/><path class="cls-6" d="M2621.51,486.68V330.22h32.69v23l.6.61a60.42,60.42,0,0,1,20.88-20.43,54.33,54.33,0,0,1,27.85-7.41q26,0,40.7,13.61t14.68,39.65V486.68h-34.5V388.33q-.61-18.46-7.87-26.79t-22.7-8.32q-17,0-27.39,11.8T2656,394.38v92.3Z"/><path class="cls-7" d="M1383.15,684.8a88.31,88.31,0,0,1,7.29-36.17,62.86,62.86,0,0,1,23-27q15.67-10.54,37.16-10.55t37.15,10.55a62.86,62.86,0,0,1,23,27,92.77,92.77,0,0,1,3,64.06,74.91,74.91,0,0,1-12.52,23.36,57.08,57.08,0,0,1-21.29,16.26,74.3,74.3,0,0,1-58.55,0A57,57,0,0,1,1400,736.05a74.5,74.5,0,0,1-12.52-23.36A88.25,88.25,0,0,1,1383.15,684.8Zm23.56-27.7a81.82,81.82,0,0,0,0,55.39A48.66,48.66,0,0,0,1422.87,734q11.34,8.78,27.7,8.77t27.69-8.77a48.76,48.76,0,0,0,16.17-21.49,81.82,81.82,0,0,0,0-55.39,48.79,48.79,0,0,0-16.17-21.48q-11.34-8.77-27.69-8.77t-27.7,8.77A48.69,48.69,0,0,0,1406.71,657.1Z"/><path class="cls-7" d="M1538.09,653.26h15.77v16.16h.39q10.24-18.52,33.12-18.53,18.92,0,27,9.76t8.08,27.5v67H1605.7v-69q0-9.46-5.52-15T1585,665.68q-14.77,0-22.47,8.77t-7.69,23.16v57.56h-16.75Z"/><path class="cls-7" d="M1648.67,614.43h16.76V755.17h-16.76Z"/><path class="cls-7" d="M1709.18,634.93h-16.75v-20.5h16.75Zm-16.75,18.33h16.75V755.17h-16.75Z"/><path class="cls-7" d="M1735.2,653.26H1751v16.16h.39q10.26-18.52,33.12-18.53,18.93,0,27,9.76t8.08,27.5v67h-16.76v-69q0-9.46-5.51-15t-15.18-5.52q-14.79,0-22.48,8.77T1752,697.61v57.56H1735.2Z"/><path class="cls-7" d="M1931.73,722.84q-3.36,17-14.68,25.73t-28.88,8.77q-23.46,0-35.78-14.49t-13.11-38.93q0-23.07,13.5-38t34.4-15a44.91,44.91,0,0,1,18.73,3.75,38.23,38.23,0,0,1,13.4,9.66,51.84,51.84,0,0,1,8.48,13.8,69,69,0,0,1,4.63,15.67,72.69,72.69,0,0,1,.89,15.47H1857q-.39,14.19,7.69,23.85t24,9.66q22.07,0,26.41-19.91Zm-16.16-28.38a31,31,0,0,0-9-20.5,27.53,27.53,0,0,0-20.4-8.28q-12.62,0-20.5,8.28a31.7,31.7,0,0,0-8.68,20.5Z"/><path class="cls-7" d="M2079.77,720.08q0,16.36-9.86,27.3t-31.74,10.94q-19.71,0-30.36-10.44t-10.64-30.36v-8.67h18.73v5.91q0,13.61,4.92,20.8t17.75,7.19q12.21,0,17.34-6.5t5.13-18.92V614.43h18.73Z"/><path class="cls-7" d="M2192.12,755.17h-15.77V739H2176q-10.26,18.33-33.12,18.33-19.12,0-27.1-9.66t-8-27.4v-67h16.76v69q0,9.46,5.52,15t15.18,5.52q14.79,0,22.47-8.77t7.69-23.16V653.26h16.75Z"/><path class="cls-7" d="M2308.42,755.17h-16.75v-13.8h-.39q-7.89,16-32.53,16-22.47,0-34.69-15.28t-12.22-38.14q0-22.86,12-37.95t34.5-15.08a49.12,49.12,0,0,1,18.53,3.85,28.85,28.85,0,0,1,14.39,12.12h.39V614.43h16.75Zm-78.84-50.07q0,15.57,8.08,26.61t23.46,11q15.77,0,23.45-11.23t7.69-27.21q0-16.35-8-27.49t-24.15-11.14q-16,0-23.26,11.33T2229.58,705.1Z"/><path class="cls-7" d="M2422.16,746.5q0,25.23-11.53,37.55t-35.78,12.32a64.64,64.64,0,0,1-19.31-2.76,36.89,36.89,0,0,1-15.68-9.76,25.48,25.48,0,0,1-7.19-17.44h16.75q.4,8.26,8.58,12.42a38.92,38.92,0,0,0,17.84,4.13q15.76,0,23.16-10.25t7.39-28.18v-6.71H2406a28.59,28.59,0,0,1-12.72,13.7,39.34,39.34,0,0,1-19,4.64q-21.69,0-33.61-14.69t-11.92-36.76a70.84,70.84,0,0,1,2.46-18.73,60.63,60.63,0,0,1,7.69-17.15,37.7,37.7,0,0,1,14.78-13,47.82,47.82,0,0,1,22.18-4.93q21.09,0,30.36,17h.19V653.26h15.77Zm-46.91-4.93q15.38,0,22.86-11.63t7.49-27.79q0-15.18-7.19-25.83t-21.78-10.64q-15.2,0-22.67,10.54t-7.49,26.52a64.21,64.21,0,0,0,2.46,18.33,31.25,31.25,0,0,0,9.17,14.39Q2364.79,741.57,2375.25,741.57Z"/><path class="cls-7" d="M2534.32,722.84q-3.36,17-14.68,25.73t-28.88,8.77q-23.46,0-35.78-14.49t-13.11-38.93q0-23.07,13.5-38t34.4-15a44.91,44.91,0,0,1,18.73,3.75,38.23,38.23,0,0,1,13.4,9.66,51.84,51.84,0,0,1,8.48,13.8,69,69,0,0,1,4.63,15.67,72.69,72.69,0,0,1,.89,15.47h-76.29q-.39,14.19,7.69,23.85t24,9.66q22.07,0,26.41-19.91Zm-16.16-28.38a31,31,0,0,0-9-20.5,27.53,27.53,0,0,0-20.4-8.28q-12.61,0-20.5,8.28a31.7,31.7,0,0,0-8.68,20.5Z"/></g></g></svg>