<?xml version="1.0" standalone="no"?>
<!DOCTYPE svg PUBLIC "-//W3C//DTD SVG 20010904//EN"
 "http://www.w3.org/TR/2001/REC-SVG-20010904/DTD/svg10.dtd">
<svg version="1.0" xmlns="http://www.w3.org/2000/svg"
 width="223.000000pt" height="223.000000pt" viewBox="0 0 223.000000 223.000000"
 preserveAspectRatio="xMidYMid meet">
<metadata>
Created by potrace 1.11, written by Peter Selinger 2001-2013
</metadata>
<g transform="translate(0.000000,223.000000) scale(0.100000,-0.100000)"
fill="#000000" stroke="none">
<path d="M1101 2183 c0 -7 -1 -15 -1 -18 0 -3 -7 -19 -15 -35 -8 -16 -15 -32
-15 -35 0 -3 0 -6 -1 -7 0 -2 -2 -10 -4 -18 -2 -8 -18 -67 -35 -130 -17 -63
-34 -125 -37 -137 -4 -18 -9 -20 -30 -12 -18 7 -22 6 -17 -4 5 -8 2 -8 -9 2
-13 11 -17 11 -17 1 0 -8 -3 -10 -7 -7 -3 4 -12 2 -20 -4 -7 -6 -13 -8 -13 -4
0 4 -7 2 -15 -5 -8 -7 -15 -10 -15 -7 0 3 -15 1 -32 -4 -18 -6 -42 -12 -53
-14 -11 -3 -32 -7 -47 -11 -16 -3 -28 -10 -28 -15 0 -5 -3 -8 -7 -8 -23 4 -43
-2 -38 -11 3 -5 1 -10 -5 -10 -6 0 -8 -5 -4 -12 5 -7 2 -9 -7 -6 -11 4 -14 -5
-15 -36 -4 -92 -9 -116 -26 -122 -10 -3 -18 -10 -18 -16 0 -6 -3 -8 -6 -5 -4
4 -19 -2 -33 -12 -22 -15 -46 -27 -71 -36 -32 -11 -86 -40 -97 -51 -8 -8 -19
-12 -24 -9 -5 4 -9 -6 -10 -22 -1 -38 -7 -126 -12 -193 -3 -30 -8 -107 -12
-170 -11 -168 -14 -181 -46 -175 -10 2 -19 -1 -19 -7 0 -6 -11 -8 -25 -6 -13
3 -24 2 -23 -1 2 -20 -3 -31 -12 -26 -6 4 -7 -1 -3 -11 4 -12 3 -15 -5 -10 -8
5 -10 2 -6 -9 4 -9 13 -14 20 -11 7 3 16 0 20 -6 4 -7 3 -8 -4 -4 -8 5 -12 0
-12 -13 0 -12 5 -21 12 -21 9 0 9 -3 0 -12 -7 -7 -12 -17 -12 -22 0 -6 5 -4
11 4 8 12 10 9 6 -13 -3 -18 0 -30 8 -34 8 -2 16 -12 19 -20 6 -14 4 -14 -10
-2 -16 13 -16 12 -4 -11 7 -14 18 -28 24 -32 8 -6 6 -11 -4 -18 -9 -6 -10 -10
-3 -10 6 0 13 -10 15 -22 2 -15 13 -24 35 -30 23 -6 37 -19 52 -51 33 -67 199
-247 228 -247 7 0 16 -6 20 -13 4 -7 26 -21 48 -32 22 -11 42 -22 45 -25 7 -7
53 -27 64 -28 5 0 12 -5 15 -11 4 -5 19 -12 35 -15 15 -3 34 -10 41 -16 10 -8
14 -7 18 2 4 10 6 10 6 1 1 -7 6 -13 12 -13 5 0 7 6 3 12 -5 9 -2 9 9 -1 9 -7
17 -10 17 -5 0 5 5 2 10 -6 7 -11 10 -11 10 -2 0 7 5 10 10 7 6 -4 8 -11 5
-16 -4 -5 -1 -9 4 -9 6 0 11 7 11 16 0 8 4 13 10 9 5 -3 7 -13 4 -23 -4 -10
-3 -13 3 -6 8 11 52 12 69 1 5 -3 16 -2 24 3 8 5 22 5 32 -1 12 -6 18 -6 18 1
0 5 5 10 11 10 5 0 7 -6 3 -12 -5 -9 -2 -9 9 1 13 10 17 10 17 1 0 -9 4 -9 17
1 15 12 16 12 8 -1 -7 -13 -6 -13 7 -2 13 10 17 10 21 0 4 -10 6 -10 6 0 1 6
9 12 19 12 10 0 24 6 31 12 11 11 12 10 6 -2 -8 -13 -7 -13 8 -1 9 7 17 11 17
7 0 -3 16 0 35 8 19 8 35 12 35 9 0 -3 7 0 15 7 8 7 15 10 15 6 0 -3 32 10 70
30 39 21 70 41 70 45 0 4 9 11 21 14 24 8 52 29 82 62 11 12 25 19 31 16 6 -3
8 -3 4 2 -4 4 9 22 28 40 18 18 34 37 34 44 0 6 4 11 10 11 5 0 24 25 41 55
17 30 35 55 41 55 5 0 7 4 4 9 -3 5 1 14 9 21 8 7 12 16 9 21 -3 5 -2 9 3 8
24 -4 43 2 37 13 -4 7 -3 8 5 4 12 -8 44 18 34 28 -4 3 -1 6 5 6 6 0 9 7 6 15
-4 8 1 17 10 21 14 5 14 9 4 22 -7 9 -8 13 -2 9 12 -7 38 39 29 53 -3 4 5 10
18 14 18 5 19 8 7 15 -12 9 -12 11 3 17 9 3 14 10 11 15 -3 5 0 9 5 9 6 0 11
6 11 14 0 8 6 17 13 19 7 4 6 6 -4 6 -9 1 -20 8 -23 17 -4 9 -13 14 -21 10 -8
-3 -15 -1 -15 4 0 6 -6 10 -14 10 -17 0 -41 28 -41 49 0 9 -4 22 -8 29 -5 6
-4 12 1 12 5 0 6 17 2 40 -5 25 -4 40 3 40 6 0 6 5 0 13 -5 6 -9 56 -9 109 1
54 -3 98 -7 98 -5 0 -5 5 -1 12 4 7 6 35 5 62 -2 28 -4 64 -5 80 -1 16 -7 31
-14 34 -7 2 -10 8 -7 13 4 5 -1 6 -10 3 -8 -4 -25 0 -38 8 -12 8 -41 20 -64
28 -24 7 -43 17 -43 22 0 4 -3 8 -7 7 -16 -2 -53 14 -53 22 0 5 -3 8 -7 7 -10
-4 -73 23 -74 31 -2 9 -7 42 -14 86 -3 22 -8 51 -11 65 -4 14 -7 44 -8 67 0
22 -4 39 -8 36 -5 -2 -8 0 -8 6 0 10 -93 57 -130 65 -3 1 -15 7 -27 14 -13 7
-23 9 -23 5 0 -4 -4 -3 -8 2 -11 16 -102 56 -113 50 -5 -4 -12 1 -15 10 -5 13
-9 14 -14 4 -7 -10 -11 -9 -22 2 -8 8 -15 17 -16 22 -1 4 -3 9 -3 12 -1 3 -3
10 -4 15 -1 6 -4 12 -5 15 -1 3 -3 8 -4 13 -18 83 -32 132 -37 132 -4 0 -10 8
-12 18 -3 9 -5 11 -6 5z"/>
</g>
</svg>
