<svg version="1.1" id="Capa_1" xmlns="http://www.w3.org/2000/svg" xmlns:xlink="http://www.w3.org/1999/xlink" x="0px" y="0px"
   width="525.142px" height="525.142px" viewBox="0 0 525.142 525.142" style="enable-background:new 0 0 525.142 525.142;"
   xml:space="preserve">
<g>
  <g>
    <path d="M375.54,0.244c-13.336,1.689-26.83,2.87-40.496,3.556c-15.741,0.796-27.987,1.188-36.727,1.188
      c-10.067,0-22.087-0.514-36.071-1.579c-12.228-0.918-25.282-2.05-39.162-3.378c-3.366-0.324-6.958,2.014-7.803,5.288
      c-1.053,4.088-1.573,7.418-1.573,9.976c0,6.873,4.804,11.095,14.425,12.68c12.681,1.579,20.661,5.025,23.941,10.306
      c3.28,5.282,4.039,12.675,2.295,22.191l-64.266,403.394c-1.756,10.043-5.478,17.576-11.157,22.589
      c-5.686,5.024-14.21,8.599-25.575,10.697c-4.816,1.065-7.987,2.662-9.504,4.755c-1.542,2.118-2.295,5.282-2.295,9.518
      c0,2.563,0.245,5.324,0.728,8.28c0.545,3.335,3.966,5.697,7.326,5.354c12.748-1.31,25.257-2.424,37.528-3.329
      c14.198-1.065,25.673-1.579,34.425-1.579c10.055,0,22.957,0.514,38.697,1.579c13.764,0.924,27.681,2.05,41.781,3.384
      c3.366,0.318,6.787-2.068,7.332-5.403c0.483-2.956,0.729-5.71,0.729-8.28c0-7.394-4.162-12.148-12.461-14.272
      c-11.806-2.638-19.896-5.942-24.266-9.901c-4.376-3.96-5.686-11.225-3.935-21.794L332.418,62.05
      c1.738-10.563,5.129-18.225,10.165-22.98c5.019-4.755,13.66-8.182,25.906-10.306c6.12-1.053,10.172-2.638,12.13-4.755
      c1.971-2.105,2.95-5.275,2.95-9.511c0-2.693-0.264-5.71-0.802-9.051C382.241,2.111,378.894-0.184,375.54,0.244z"/>
  </g>
</g>
<g>
</g>
<g>
</g>
<g>
</g>
<g>
</g>
<g>
</g>
<g>
</g>
<g>
</g>
<g>
</g>
<g>
</g>
<g>
</g>
<g>
</g>
<g>
</g>
<g>
</g>
<g>
</g>
<g>
</g>
</svg>
