<svg enable-background="new 0 0 64 64" height="64px" id="Layer_1" version="1.1" viewBox="0 0 64 64" width="64px" xml:space="preserve" xmlns="http://www.w3.org/2000/svg" xmlns:xlink="http://www.w3.org/1999/xlink"><path d="M45.73,64H34.752c-0.715,0-1.295-0.173-1.738-0.52s-0.794-0.758-1.056-1.234l-9.484-16.564  c-0.174,0.478-0.369,0.887-0.584,1.234l-8.835,15.33c-0.304,0.434-0.661,0.834-1.072,1.201C11.572,63.816,11.041,64,10.391,64H0.127  L15.36,39.641L0.712,16.675H11.69c0.714,0,1.24,0.093,1.576,0.276c0.335,0.185,0.634,0.493,0.893,0.926l9.42,15.948  c0.108-0.28,0.232-0.552,0.374-0.812c0.14-0.262,0.297-0.531,0.471-0.813l8.25-14.161c0.305-0.477,0.622-0.823,0.958-1.04  c0.336-0.217,0.752-0.325,1.251-0.325h10.524L30.562,39.186L45.73,64z"/><path d="M61.84,23.86c0.667,0,1.193,0.183,1.58,0.55c0.387,0.366,0.58,0.85,0.58,1.45v3.6H43.521v-2c0-0.387,0.079-0.8,0.239-1.24  c0.16-0.439,0.44-0.84,0.84-1.2l8.4-8.46c0.721-0.72,1.347-1.406,1.881-2.06c0.533-0.653,0.973-1.297,1.319-1.93  c0.347-0.634,0.606-1.267,0.78-1.9c0.173-0.633,0.26-1.304,0.26-2.01c0-1.16-0.277-2.05-0.83-2.67  c-0.553-0.62-1.396-0.93-2.529-0.93c-0.92,0-1.697,0.243-2.33,0.73c-0.634,0.487-1.07,1.09-1.311,1.81  c-0.279,0.733-0.646,1.22-1.1,1.46c-0.453,0.24-1.1,0.293-1.94,0.16l-3.28-0.58c0.213-1.453,0.623-2.72,1.23-3.8  c0.606-1.08,1.359-1.98,2.26-2.7c0.9-0.72,1.93-1.257,3.09-1.61C51.66,0.177,52.906,0,54.24,0c1.439,0,2.736,0.21,3.891,0.63  c1.152,0.42,2.137,1.003,2.949,1.75c0.813,0.747,1.438,1.637,1.87,2.67C63.383,6.083,63.6,7.22,63.6,8.46  c0,1.066-0.149,2.054-0.449,2.96c-0.301,0.907-0.71,1.771-1.23,2.59c-0.52,0.82-1.123,1.613-1.81,2.38  c-0.687,0.768-1.417,1.544-2.19,2.33l-5.699,5.84c0.732-0.227,1.459-0.399,2.18-0.52c0.72-0.12,1.387-0.18,2-0.18H61.84z"/></svg>