<svg version="1.1" xmlns="http://www.w3.org/2000/svg" xmlns:xlink="http://www.w3.org/1999/xlink" x="0px" y="0px" viewBox="0 0 1000 1000" enable-background="new 0 0 1000 1000" xml:space="preserve">
<metadata> Svg Vector Icons : http://www.onlinewebfonts.com/icon </metadata>
<g><path d="M195.3,425.6l-0.6-87.8h129.8l8-58.1c6.6-65.4,28.7-125.8,66.4-181.2C436.5,43,499.1,13.5,586.7,10c40.2,1.9,69.9,8.3,89.2,19.1l-21,81.4c-19.5-8-42.2-12.2-68.2-12.6c-44.1,1.5-77.1,19-99,52.7c-21.8,33.7-35.2,74.6-40,122.8l-8,64.4h149.6v87.8H423.4l-31.1,273.9c-9,88.5-30.2,158.7-63.7,210.7c-33.5,52-87.4,78.6-161.8,79.8c-44.1-0.9-77.8-8.3-101.1-22.3l20.7-81.6c21.6,10.3,45.8,15.2,72.6,14.8c39.4-0.2,68.5-18.2,87.2-54c18.7-35.8,31.5-88,38.6-156.7l29.8-264.5H195.3z M681.1,718.6l-12.5-61.8l-13.3-55.3L644,567.9l-12.6-11.7l-6.7,1.8l-15,14.1l-21.3,31.4L544,586.2c16.9-27.4,33.2-47.9,48.8-61.5c15.6-13.5,34-20.3,73.3-20.3l38.8,11.6l23.7,40.8l9.9,40l5.6,33.7L825,527.1c9.2-8.3,18-14.2,26.4-17.6c8.4-3.4,19.6-5.1,33.7-5.1c3.1,0,41.2,1.5,49.3,4.6l-16.1,69.6H900h-10h-18.2c-1-6.5-3-11.1-6.2-13.8l-7.3,4l-17.2,16.4l-81.8,102.9l13.8,67.5l11.5,47.3l8.8,29.9l8.3,16.4l11.2,8.2c3.9-1.5,7.7-3.9,11.5-7.2c6.8-6,16.7-19.5,29.6-40.6l44.4,17.3c-18.7,30-35.7,51.1-50.9,63.4c-15.2,12.3-33.3,18.4-54.2,18.4c-3,0-39.6-2.1-47.7-6.3c-8-4.2-15-10.9-21-20.2c-5.9-9.2-11.2-23.6-15.7-43.1c-6.1-25.5-10.5-46.6-13.1-63.4L610,886c-9,8.5-17.7,14.4-26.2,17.8c-8.5,3.4-19.7,5.1-33.7,5.1c-3.1,0-41.1-1.5-49.2-4.6l16.1-69.6h46.5c0.9,6.5,3,11.1,6.1,13.8l1.7-0.4l17.9-15.1L681.1,718.6z"/></g>
</svg>