<?xml version="1.0" ?><svg id="Layer_2" style="enable-background:new 0 0 32 32;" version="1.1" viewBox="0 0 32 32" xml:space="preserve" xmlns="http://www.w3.org/2000/svg" xmlns:xlink="http://www.w3.org/1999/xlink"><g><path d="M21.03986,0.5033c-2.79645,0-5.42261,1.08527-7.3949,3.05811L12.1192,5.08759   c-0.36615,0.36615-0.56726,0.85254-0.56726,1.37006c0,0.51855,0.20154,1.00488,0.56775,1.37012   c0.73279,0.73236,2.00873,0.73236,2.7406,0l1.52527-1.52618c2.5661-2.56512,6.74207-2.56421,9.30817,0   c1.24518,1.24518,1.93066,2.89813,1.93066,4.6543c0,1.7561-0.68597,3.40912-1.93115,4.6543l-1.52576,1.52618   c-0.36615,0.36621-0.5672,0.85254-0.5672,1.37012c0,0.51849,0.20154,1.00482,0.56769,1.37006   c0.36621,0.36615,0.85254,0.56769,1.37012,0.56769c0.51752,0,1.00433-0.20154,1.37054-0.56769l1.52527-1.52618   C30.41095,16.3728,31.5,13.74713,31.5,10.95587s-1.08905-5.41693-3.0661-7.39447C26.46204,1.58856,23.83636,0.5033,21.03986,0.5033   z"/><path d="M10.9516,31.49664c2.79602,0,5.42212-1.08618,7.39496-3.05804l1.5257-1.52618   c0.36621-0.36621,0.56726-0.85254,0.56726-1.37012c0-0.51849-0.20154-1.00482-0.56769-1.37006   c-0.73285-0.73334-2.00879-0.73145-2.74066,0l-1.52527,1.52618c-2.56415,2.56604-6.74066,2.56702-9.30859,0   c-2.56604-2.56604-2.56604-6.74255,0-9.30859l1.52618-1.52625c0.75555-0.755,0.75555-1.98511,0-2.74011   c-0.75507-0.75507-1.98511-0.75507-2.74017,0l-1.52618,1.52618c-4.07617,4.07715-4.07617,10.71179,0,14.78894   C5.52899,30.41046,8.15515,31.49664,10.9516,31.49664z"/><path d="M9.41644,22.57977c0.36615,0.36621,0.85248,0.56775,1.37006,0.56775c0.51807,0,1.00482-0.20154,1.37006-0.56775   l10.41852-10.41943c0.36615-0.36615,0.56769-0.85248,0.56769-1.37006s-0.20154-1.00391-0.56769-1.37012   c-0.73187-0.73236-2.00922-0.73236-2.74017,0L9.41644,19.8396c-0.36621,0.36621-0.56775,0.85254-0.56775,1.37012   S9.05023,22.21362,9.41644,22.57977z"/></g></svg>