<?xml version="1.0" ?><svg id="line" viewBox="0 0 32 32" xmlns="http://www.w3.org/2000/svg"><defs><style>.cls-1{fill:#bfffc8;}.cls-2{fill:#00df8e;}</style></defs><title/><path class="cls-1" d="M16,13.18a6.09,6.09,0,1,1,6.09-6.09A6.09,6.09,0,0,1,16,13.18ZM16,3a4.09,4.09,0,1,0,4.09,4.09A4.09,4.09,0,0,0,16,3Z"/><path class="cls-2" d="M23,31H9a5.46,5.46,0,0,1-5.45-5.45A10.56,10.56,0,0,1,14.09,15h3.82A10.56,10.56,0,0,1,28.45,25.55,5.46,5.46,0,0,1,23,31ZM14.09,17a8.55,8.55,0,0,0-8.54,8.55A3.46,3.46,0,0,0,9,29H23a3.46,3.46,0,0,0,3.45-3.45A8.55,8.55,0,0,0,17.91,17Z"/></svg>